<svg width="107" height="107" viewBox="0 0 107 107" fill="none" xmlns="http://www.w3.org/2000/svg">
<path d="M100.736 106.576C100.012 106.25 96.2217 102.583 84.3266 90.7042L68.8582 75.2565L68.2311 75.7707C66.9571 76.8155 64.62 78.3479 62.5873 79.4714C50.6371 86.0759 35.8037 86.3835 23.6581 80.2786C19.2545 78.0652 15.8411 75.6078 12.4268 72.1931C6.90295 66.6684 3.17935 60.0688 1.22956 52.3474C-2.13992 39.0039 1.52206 24.5293 10.9112 14.0792C19.3247 4.71486 31.727 -0.547921 43.9834 0.0453013C59.7146 0.806705 73.2049 9.56872 80.2584 23.6061C85.699 34.4335 86.1069 47.2538 81.3745 58.6877C80.1722 61.5925 77.4749 66.1927 75.7805 68.2282L75.2584 68.8554L90.704 84.326C106.982 100.63 106.994 100.644 107 102.514C107.003 103.437 106.244 105.243 105.622 105.796C104.943 106.398 103.389 107 102.512 107C102.053 107 101.253 106.809 100.736 106.576ZM47.1189 75.4128C48.0386 75.2901 49.672 74.9557 50.7487 74.6697C63.6887 71.2319 73.152 60.8019 75.3718 47.531C75.7551 45.2401 75.7984 40.0058 75.4532 37.7051C74.3744 30.5141 71.1901 24.0745 66.2187 19.0302C59.8613 12.5795 52.3725 9.30105 43.3563 9.02147C37.6562 8.84472 33.6919 9.62656 28.515 11.9485C21.3269 15.1725 15.183 21.3173 11.9594 28.5064C9.63784 33.6841 8.85612 37.6489 9.03285 43.3498C9.31238 52.3672 12.5904 59.8571 19.0401 66.2155C26.4371 73.5075 36.555 76.8217 47.1189 75.4128Z" fill="#A4A4A4"/>
</svg>
